HIERARCHY
ROOT Hips
{
	OFFSET 0.000000 71.427986 0.000000
	CHANNELS 6 Xposition Yposition Zposition Xrotation Yrotation Zrotation
	JOINT Pelvis
	{
		OFFSET 0.000000 0.000000 0.000000
		CHANNELS 3 Xrotation Yrotation Zrotation
		JOINT LeftUpLeg
		{
			OFFSET 6.797100 -2.508499 -1.318700
			CHANNELS 3 Xrotation Yrotation Zrotation
			JOINT LeftLeg
			{
				OFFSET 0.069008 -29.241863 0.690200
				CHANNELS 3 Xrotation Yrotation Zrotation
				JOINT LeftFoot
				{
					OFFSET -0.069008 -29.568123 -0.266800
					CHANNELS 3 Xrotation Yrotation Zrotation
					JOINT LeftToeBase
					{
						OFFSET 3.145500 -8.631000 16.059900
						CHANNELS 3 Xrotation Yrotation Zrotation
						End Site
						{
							OFFSET 0.000000 18.501587 0.000000
						}
					}
				}
			}
			JOINT Left_ShortSleeve
			{
				OFFSET 0.265923 -10.480953 1.153800
				CHANNELS 3 Xrotation Yrotation Zrotation
				End Site
				{
					OFFSET 1.725763 19.823879 0.000000
				}
			}
		}
		JOINT RightUpLeg
		{
			OFFSET -6.797100 -2.508499 -1.318700
			CHANNELS 3 Xrotation Yrotation Zrotation
			JOINT RightLeg
			{
				OFFSET -0.082453 -29.241932 0.688000
				CHANNELS 3 Xrotation Yrotation Zrotation
				JOINT RightFoot
				{
					OFFSET 0.082453 -29.568058 -0.264600
					CHANNELS 3 Xrotation Yrotation Zrotation
					JOINT RightToeBase
					{
						OFFSET -3.115300 -8.682800 16.113400
						CHANNELS 3 Xrotation Yrotation Zrotation
						End Site
						{
							OFFSET 0.000000 18.567114 0.000000
						}
					}
				}
			}
			JOINT Right_ShortSleeve
			{
				OFFSET -0.265923 -10.480953 1.153800
				CHANNELS 3 Xrotation Yrotation Zrotation
				End Site
				{
					OFFSET -1.725766 19.823910 0.000000
				}
			}
		}
	}
	JOINT Spine
	{
		OFFSET 0.000000 13.368103 0.470500
		CHANNELS 3 Xrotation Yrotation Zrotation
		JOINT Spine1
		{
			OFFSET 0.147000 13.837402 0.538800
			CHANNELS 3 Xrotation Yrotation Zrotation
			JOINT Spine2
			{
				OFFSET 0.168000 16.242897 -1.435500
				CHANNELS 3 Xrotation Yrotation Zrotation
				JOINT Neck
				{
					OFFSET 0.217200 18.631500 -1.679100
					CHANNELS 3 Xrotation Yrotation Zrotation
					JOINT Head
					{
						OFFSET 0.000000 6.599396 1.385900
						CHANNELS 3 Xrotation Yrotation Zrotation
						JOINT Hat
						{
							OFFSET -0.532200 27.220596 -10.096100
							CHANNELS 3 Xrotation Yrotation Zrotation
							End Site
							{
								OFFSET 0.000000 22.029861 0.000000
							}
						}
						JOINT HairD
						{
							OFFSET -10.777400 17.437393 -1.325900
							CHANNELS 3 Xrotation Yrotation Zrotation
							JOINT HairD1
							{
								OFFSET -3.290299 -11.051193 1.062200
								CHANNELS 3 Xrotation Yrotation Zrotation
								End Site
								{
									OFFSET 0.000000 11.579437 0.000000
								}
							}
						}
						JOINT HairB
						{
							OFFSET -10.777400 17.437393 1.467900
							CHANNELS 3 Xrotation Yrotation Zrotation
							JOINT HairB1
							{
								OFFSET -1.561200 -12.956299 3.590200
								CHANNELS 3 Xrotation Yrotation Zrotation
								End Site
								{
									OFFSET 0.000000 13.534866 0.000000
								}
							}
						}
						JOINT HairA
						{
							OFFSET 9.713100 17.437393 1.467900
							CHANNELS 3 Xrotation Yrotation Zrotation
							JOINT HairA1
							{
								OFFSET 1.561200 -12.956299 3.590200
								CHANNELS 3 Xrotation Yrotation Zrotation
								End Site
								{
									OFFSET 0.000000 13.534866 0.000000
								}
							}
						}
						JOINT HairC
						{
							OFFSET 9.713100 17.437393 -1.325900
							CHANNELS 3 Xrotation Yrotation Zrotation
							JOINT HairC1
							{
								OFFSET 3.290300 -11.051193 1.062200
								CHANNELS 3 Xrotation Yrotation Zrotation
								End Site
								{
									OFFSET 0.000000 11.579437 0.000000
								}
							}
						}
					}
				}
				JOINT LeftShoulder
				{
					OFFSET 5.101800 15.108002 -2.763700
					CHANNELS 3 Xrotation Yrotation Zrotation
					JOINT LeftArm
					{
						OFFSET 9.825497 2.506317 -1.597400
						CHANNELS 3 Xrotation Yrotation Zrotation
						JOINT LeftForeArm
						{
							OFFSET 21.966244 0.000000 0.000000
							CHANNELS 3 Xrotation Yrotation Zrotation
							JOINT LeftHand
							{
								OFFSET 33.879036 0.000000 0.000000
								CHANNELS 3 Xrotation Yrotation Zrotation
								JOINT LeftHandThumb1
								{
									OFFSET 6.715286 -2.359680 3.363841
									CHANNELS 3 Xrotation Yrotation Zrotation
									JOINT LeftHandThumb2
									{
										OFFSET 2.507072 -1.447464 1.447461
										CHANNELS 3 Xrotation Yrotation Zrotation
										JOINT LeftHandThumb3
										{
											OFFSET 2.898338 -1.673355 1.673357
											CHANNELS 3 Xrotation Yrotation Zrotation
											End Site
											{
												OFFSET -0.295959 3.727692 -0.131651
											}
										}
									}
								}
								JOINT LeftHandIndex1
								{
									OFFSET 14.190811 -0.254547 3.840278
									CHANNELS 3 Xrotation Yrotation Zrotation
									JOINT LeftHandIndex2
									{
										OFFSET 3.551727 0.000000 -0.000000
										CHANNELS 3 Xrotation Yrotation Zrotation
										JOINT LeftHandIndex3
										{
											OFFSET 2.894196 0.000000 0.000000
											CHANNELS 3 Xrotation Yrotation Zrotation
											End Site
											{
												OFFSET -1.000603 2.690872 0.366626
											}
										}
									}
								}
								JOINT LeftHandMiddle1
								{
									OFFSET 13.776489 0.000000 0.000000
									CHANNELS 3 Xrotation Yrotation Zrotation
									JOINT LeftHandMiddle2
									{
										OFFSET 3.438232 0.000000 0.000000
										CHANNELS 3 Xrotation Yrotation Zrotation
										JOINT LeftHandMiddle3
										{
											OFFSET 3.691551 0.000000 0.000000
											CHANNELS 3 Xrotation Yrotation Zrotation
											End Site
											{
												OFFSET -1.082298 3.499527 0.457670
											}
										}
									}
								}
								JOINT LeftHandRing1
								{
									OFFSET 13.966164 -0.268127 -3.067488
									CHANNELS 3 Xrotation Yrotation Zrotation
									JOINT LeftHandRing2
									{
										OFFSET 3.162567 0.000000 0.000000
										CHANNELS 3 Xrotation Yrotation Zrotation
										JOINT LeftHandRing3
										{
											OFFSET 3.324348 0.000000 0.000000
											CHANNELS 3 Xrotation Yrotation Zrotation
											End Site
											{
												OFFSET -0.861900 3.184998 0.405154
											}
										}
									}
								}
								JOINT LeftHandPinky1
								{
									OFFSET 13.131393 -0.168503 -5.746925
									CHANNELS 3 Xrotation Yrotation Zrotation
									JOINT LeftHandPinky2
									{
										OFFSET 2.849182 0.000000 0.000000
										CHANNELS 3 Xrotation Yrotation Zrotation
										JOINT LeftHandPinky3
										{
											OFFSET 2.805038 0.000000 0.000000
											CHANNELS 3 Xrotation Yrotation Zrotation
											End Site
											{
												OFFSET -0.882500 2.642609 0.325652
											}
										}
									}
								}
							}
							JOINT Left_Sleeve
							{
								OFFSET 6.592125 -0.646545 0.805568
								CHANNELS 3 Xrotation Yrotation Zrotation
								End Site
								{
									OFFSET -0.000179 20.275787 -0.000000
								}
							}
						}
					}
				}
				JOINT RightShoulder
				{
					OFFSET -5.731700 15.108002 -2.763700
					CHANNELS 3 Xrotation Yrotation Zrotation
					JOINT RightArm
					{
						OFFSET -9.825497 2.506317 -1.597400
						CHANNELS 3 Xrotation Yrotation Zrotation
						JOINT RightForeArm
						{
							OFFSET -21.966242 0.000000 0.000000
							CHANNELS 3 Xrotation Yrotation Zrotation
							JOINT RightHand
							{
								OFFSET -33.879032 0.000000 0.000000
								CHANNELS 3 Xrotation Yrotation Zrotation
								JOINT RightHandThumb1
								{
									OFFSET -6.715286 -2.359680 3.363841
									CHANNELS 3 Xrotation Yrotation Zrotation
									JOINT RightHandThumb2
									{
										OFFSET -2.507072 -1.447464 1.447461
										CHANNELS 3 Xrotation Yrotation Zrotation
										JOINT RightHandThumb3
										{
											OFFSET -2.898338 -1.673355 1.673357
											CHANNELS 3 Xrotation Yrotation Zrotation
											End Site
											{
												OFFSET 0.295959 3.727692 -0.131651
											}
										}
									}
								}
								JOINT RightHandIndex1
								{
									OFFSET -14.190811 -0.254547 3.840278
									CHANNELS 3 Xrotation Yrotation Zrotation
									JOINT RightHandIndex2
									{
										OFFSET -3.551727 0.000000 -0.000000
										CHANNELS 3 Xrotation Yrotation Zrotation
										JOINT RightHandIndex3
										{
											OFFSET -2.894196 0.000000 0.000000
											CHANNELS 3 Xrotation Yrotation Zrotation
											End Site
											{
												OFFSET 1.000603 2.690872 0.366626
											}
										}
									}
								}
								JOINT RightHandMiddle1
								{
									OFFSET -13.776489 0.000000 0.000000
									CHANNELS 3 Xrotation Yrotation Zrotation
									JOINT RightHandMiddle2
									{
										OFFSET -3.438232 0.000000 0.000000
										CHANNELS 3 Xrotation Yrotation Zrotation
										JOINT RightHandMiddle3
										{
											OFFSET -3.691551 0.000000 0.000000
											CHANNELS 3 Xrotation Yrotation Zrotation
											End Site
											{
												OFFSET 1.082298 3.499527 0.457670
											}
										}
									}
								}
								JOINT RightHandRing1
								{
									OFFSET -13.966164 -0.268127 -3.067488
									CHANNELS 3 Xrotation Yrotation Zrotation
									JOINT RightHandRing2
									{
										OFFSET -3.162567 0.000000 0.000000
										CHANNELS 3 Xrotation Yrotation Zrotation
										JOINT RightHandRing3
										{
											OFFSET -3.324348 0.000000 0.000000
											CHANNELS 3 Xrotation Yrotation Zrotation
											End Site
											{
												OFFSET 0.861900 3.184998 0.405154
											}
										}
									}
								}
								JOINT RightHandPinky1
								{
									OFFSET -13.131393 -0.168503 -5.746925
									CHANNELS 3 Xrotation Yrotation Zrotation
									JOINT RightHandPinky2
									{
										OFFSET -2.849182 0.000000 0.000000
										CHANNELS 3 Xrotation Yrotation Zrotation
										JOINT RightHandPinky3
										{
											OFFSET -2.805038 0.000000 0.000000
											CHANNELS 3 Xrotation Yrotation Zrotation
											End Site
											{
												OFFSET 0.882500 2.642609 0.325652
											}
										}
									}
								}
							}
							JOINT Right_Sleeve
							{
								OFFSET -6.592125 -0.646545 0.805568
								CHANNELS 3 Xrotation Yrotation Zrotation
								End Site
								{
									OFFSET 0.000179 20.275787 -0.000000
								}
							}
						}
					}
				}
				JOINT Bind_Right_JacketString
				{
					OFFSET -3.534800 11.969597 7.200700
					CHANNELS 3 Xrotation Yrotation Zrotation
					JOINT Bind_Right_JacketString1
					{
						OFFSET -0.319900 -6.102600 2.794100
						CHANNELS 3 Xrotation Yrotation Zrotation
						End Site
						{
							OFFSET 0.000000 6.719452 0.000000
						}
					}
				}
				JOINT Bind_Left_JacketString
				{
					OFFSET 2.904800 11.969597 7.200700
					CHANNELS 3 Xrotation Yrotation Zrotation
					JOINT Bind_Left_JacketString1
					{
						OFFSET 0.364800 -5.904503 3.186800
						CHANNELS 3 Xrotation Yrotation Zrotation
						End Site
						{
							OFFSET 0.000000 6.719513 0.000000
						}
					}
				}
				JOINT HairE
				{
					OFFSET 5.915200 17.612701 -11.592200
					CHANNELS 3 Xrotation Yrotation Zrotation
					JOINT HairE1
					{
						OFFSET 0.289200 -7.171898 -1.284500
						CHANNELS 3 Xrotation Yrotation Zrotation
						End Site
						{
							OFFSET 0.000000 7.291756 0.000000
						}
					}
				}
				JOINT HairF
				{
					OFFSET -0.864800 17.612701 -11.592200
					CHANNELS 3 Xrotation Yrotation Zrotation
					JOINT HairF1
					{
						OFFSET 0.000000 -14.087097 -2.127501
						CHANNELS 3 Xrotation Yrotation Zrotation
						End Site
						{
							OFFSET 0.000000 14.246841 0.000000
						}
					}
				}
				JOINT HairG
				{
					OFFSET -8.087700 17.612701 -11.592200
					CHANNELS 3 Xrotation Yrotation Zrotation
					JOINT HairG1
					{
						OFFSET -0.293600 -6.081398 -0.910100
						CHANNELS 3 Xrotation Yrotation Zrotation
						End Site
						{
							OFFSET 0.000000 6.156120 0.000000
						}
					}
				}
			}
		}
	}
	JOINT Pouch
	{
		OFFSET 0.000000 4.394501 10.847300
		CHANNELS 3 Xrotation Yrotation Zrotation
		End Site
		{
			OFFSET 0.000000 21.880577 0.000000
		}
	}
	JOINT Bag
	{
		OFFSET -13.229000 4.813004 -0.593300
		CHANNELS 3 Xrotation Yrotation Zrotation
		End Site
		{
			OFFSET 0.000000 21.880577 0.000000
		}
	}
	JOINT OccupyGuyFacialAnim_Joint
	{
		OFFSET 1.000000 -70.206398 -1.655000
		CHANNELS 3 Xrotation Yrotation Zrotation
		End Site
		{
			OFFSET 0.000000 21.880577 0.000000
		}
	}
}
MOTION
Frames: 4
Frame Time: 0.033333
-0.297265 62.268578 1.412593 5.751419 -10.118696 -0.709986 -0.000000 -0.000000 0.000000 -42.431386 6.615230 -1.692601 100.176295 10.088403 4.060282 -12.066362 3.206055 7.060172 0.000001 0.000000 0.000000 0.000001 -0.000000 -0.000000 -19.463039 -5.860800 4.717540 55.852250 -0.975612 -1.519047 -41.874780 0.796549 -2.123140 -0.000000 0.000000 -0.000000 0.000001 -0.000003 -0.000000 4.921404 1.328397 1.612352 9.857134 2.800252 1.722123 9.857130 2.800254 1.722122 -1.093584 9.849411 -5.984047 -19.072043 -8.935597 -3.421886 0.000001 0.000000 -0.000000 0.000001 0.000000 -0.000000 0.000001 0.000000 -0.000000 0.000001 0.000000 -0.000000 0.000001 -0.000000 -0.000000 0.000001 0.000000 -0.000000 0.000001 -0.000000 -0.000000 0.000001 0.000000 -0.000000 0.000001 0.000000 -0.000000 1.084066 -1.226543 -9.108994 21.345692 8.879834 -75.007771 -0.000138 -98.898885 -0.000102 4.375365 -19.421986 -2.622940 3.756410 10.037382 -8.896325 8.695452 19.548625 2.623054 -0.000000 0.000001 -0.000001 8.621135 3.091792 -72.506768 3.780014 5.473431 -69.237204 -0.000000 -0.000001 -0.000002 5.809292 8.446414 -72.495396 3.771143 5.470109 -69.144204 0.000008 0.000004 -0.000006 3.196035 7.629912 -72.514356 3.782486 5.474397 -69.262981 0.000001 -0.000000 0.000001 -1.230615 16.882658 -82.353121 3.778734 5.472982 -69.223810 -0.000001 -0.000001 -0.000001 0.000002 0.000003 0.000001 0.776455 6.054086 9.529514 4.050832 -6.863541 57.662240 0.000258 84.121949 -0.000261 -10.684855 3.309418 2.504791 1.308888 -11.671443 11.982974 8.025967 -18.842530 -2.858337 -0.000000 -0.000001 -0.000000 15.040638 -3.120473 66.053257 3.476682 -4.505365 75.301278 -0.000002 0.000004 -0.000004 6.711275 -8.094642 68.106282 3.469515 -4.503511 75.209884 0.000001 -0.000002 0.000001 2.289779 -6.382844 71.658404 3.479405 -4.506116 75.335757 -0.000001 -0.000002 -0.000003 -1.756274 -16.590463 88.707000 3.475426 -4.505057 75.284900 -0.000002 -0.000002 0.000000 0.000002 0.000000 0.000000 -0.000001 0.000000 -0.000000 -0.000001 -0.000000 -0.000000 -0.000001 0.000000 0.000000 -0.000001 0.000000 0.000000 -0.000001 0.000000 -0.000000 -0.000001 -0.000000 0.000000 -0.000001 0.000000 0.000000 -0.000001 0.000000 0.000000 -0.000001 0.000000 -0.000000 -0.000001 -0.000000 0.000000 -0.000000 -0.000000 0.000000 -0.000000 -0.000000 0.000000 -0.000000 -0.000000 0.000000 
1.438832 61.903877 9.086924 7.460617 -12.185908 2.073754 -0.000000 -0.000002 0.000000 -74.753340 -2.795557 6.758938 97.261634 2.121362 0.317328 17.717903 6.458075 -4.705129 0.000002 -0.000000 -0.000000 0.000000 0.000000 -0.000000 -11.404155 -4.547599 -1.429045 50.375889 4.412234 -3.524031 -46.200315 0.986515 0.045423 -0.000000 0.000001 -0.000000 0.000000 -0.000001 -0.000000 4.080175 3.084459 0.126783 8.190152 7.317791 0.743974 6.950065 4.908541 -0.166957 -3.096533 7.354983 -6.008556 -15.879777 -9.725488 -6.495759 -0.000000 -0.000000 0.000000 -0.000000 -0.000000 0.000000 -0.000000 -0.000000 -0.000000 -0.000000 -0.000000 0.000000 -0.000000 -0.000000 -0.000000 -0.000000 -0.000000 0.000000 -0.000000 -0.000000 -0.000000 -0.000000 -0.000000 0.000000 -0.000000 -0.000000 0.000000 2.295815 -0.529010 -7.525233 51.757626 36.026417 -81.364246 0.000001 -111.523581 0.000007 -23.162295 -15.630536 -20.350344 1.203746 9.676742 -4.941412 8.110323 18.687773 2.500134 -0.000000 0.000003 -0.000000 6.826249 4.700337 -55.708324 2.322142 4.670030 -52.858066 -0.000003 0.000000 -0.000002 3.800549 7.951648 -56.933670 2.327740 4.674251 -52.926767 0.000003 0.000000 -0.000003 2.023877 6.814718 -57.491587 2.521536 4.814059 -55.269413 -0.000002 0.000000 -0.000001 -5.048276 12.759760 -63.682375 2.475276 4.781786 -54.716423 -0.000003 -0.000002 0.000001 0.000003 0.000001 -0.000003 0.926550 9.606986 1.107282 -3.724458 -4.213928 58.441489 0.000231 86.264155 -0.000156 -4.203896 -3.141183 -13.827326 -1.331986 -9.806804 6.764389 7.279756 -14.051885 -2.267855 0.000001 -0.000003 0.000000 11.877451 -4.369786 48.768285 2.372123 -4.059128 60.589720 0.000001 -0.000001 0.000000 5.017881 -8.576370 50.269813 2.399678 -4.074501 60.978098 0.000000 0.000000 0.000001 3.293786 -6.975604 54.858457 2.273192 -4.001904 59.182134 -0.000004 -0.000002 -0.000002 -2.060952 -14.108779 67.557114 2.247375 -3.986407 58.811398 -0.000001 0.000003 -0.000001 0.000002 0.000001 -0.000001 0.000001 0.000000 -0.000000 0.000001 0.000000 -0.000000 0.000001 0.000000 -0.000000 0.000001 0.000000 -0.000000 0.000001 0.000000 -0.000000 0.000001 0.000000 -0.000000 0.000001 0.000000 -0.000000 0.000001 0.000000 -0.000000 0.000001 0.000000 -0.000000 0.000001 0.000000 -0.000000 -0.000000 -0.000002 0.000000 -0.000000 -0.000002 0.000000 -0.000000 -0.000002 0.000000 
3.164996 61.953537 16.492813 9.708097 -14.094725 5.100642 -0.000000 0.000001 -0.000000 -74.405308 -3.419792 10.966315 78.545605 -4.925421 -4.000249 22.883103 21.142202 -4.727847 0.000002 -0.000000 -0.000000 0.000001 0.000000 0.000000 -0.994941 -3.747022 -7.571584 36.993473 8.624929 -5.011291 -45.857163 0.770811 2.670236 -0.000000 0.000000 0.000000 -0.000002 0.000001 -0.000000 3.415745 4.442615 -1.652343 7.000346 11.811006 -0.223079 3.932640 7.023755 -1.766659 -4.376555 4.919428 -6.516622 -11.245013 -12.854351 -6.396366 -0.000000 -0.000000 0.000000 -0.000000 -0.000000 0.000000 -0.000000 -0.000000 -0.000000 -0.000000 -0.000000 0.000000 -0.000000 -0.000000 0.000000 -0.000000 -0.000000 0.000000 -0.000000 -0.000000 0.000000 -0.000000 -0.000000 0.000000 -0.000000 -0.000000 0.000000 2.584511 0.882989 -4.095539 60.405933 60.168721 -83.048256 0.000017 -106.955537 0.000024 -37.935946 -1.725548 -26.012372 -1.313094 8.592014 -0.336948 7.479637 17.897855 2.344304 -0.000000 -0.000000 -0.000000 4.137907 5.253844 -36.789472 1.054399 3.354574 -34.889013 0.000000 -0.000002 0.000001 1.928258 6.714308 -39.531311 1.064256 3.368628 -35.056926 -0.000000 0.000001 -0.000001 1.008253 5.629289 -40.743158 1.356421 3.749932 -39.760689 0.000002 -0.000006 -0.000004 -5.967834 8.012156 -43.324703 1.294479 3.674365 -38.804005 -0.000001 -0.000004 0.000002 0.000000 0.000000 -0.000001 2.143773 13.335982 -7.288530 -15.875253 -2.875689 52.715052 -0.000052 95.246312 0.000002 1.835208 -20.585150 -24.309220 -4.100320 -7.509662 1.001441 6.421881 -8.663703 -1.522659 0.000004 0.000001 0.000001 7.738112 -3.238677 29.387005 1.314441 -3.244571 44.098833 -0.000001 -0.000003 -0.000000 2.862742 -8.337865 30.236243 1.366282 -3.297137 45.007009 0.000002 -0.000001 -0.000004 3.301895 -8.272411 35.840468 1.151738 -3.068073 41.144435 -0.000002 -0.000001 0.000001 -0.893176 -12.518880 44.118569 1.112209 -3.022269 40.400033 0.000001 0.000004 0.000001 0.000005 -0.000001 -0.000000 0.000001 -0.000000 -0.000000 0.000003 -0.000000 0.000000 0.000001 -0.000000 -0.000000 0.000001 -0.000000 -0.000000 0.000001 -0.000000 -0.000000 0.000003 -0.000000 0.000000 0.000001 -0.000000 -0.000000 0.000001 -0.000000 -0.000000 0.000001 -0.000000 -0.000000 0.000003 -0.000000 0.000000 -0.000000 0.000001 -0.000000 -0.000000 0.000001 -0.000000 -0.000000 0.000001 -0.000000 
5.018513 62.305428 23.812874 11.669032 -14.616439 7.132583 -0.000000 -0.000001 -0.000000 -72.478047 -4.035077 13.328352 62.321392 1.205884 -8.307663 13.688822 21.397985 -4.673126 0.000000 0.000001 0.000000 0.000001 -0.000002 -0.000000 5.574537 -2.204699 -11.315285 30.885487 2.986758 -6.587422 -41.269789 1.922050 5.340070 -0.000001 -0.000000 -0.000000 -0.000001 -0.000001 0.000000 2.938470 5.490123 -2.719063 6.351268 15.402107 -0.874639 1.233078 8.500596 -2.635670 -4.388173 2.727083 -6.768307 -7.995049 -16.468402 -4.166667 -0.000000 0.000000 -0.000000 -0.000000 0.000000 -0.000000 -0.000000 0.000000 -0.000000 -0.000000 0.000000 0.000000 -0.000000 0.000000 -0.000000 -0.000000 0.000000 0.000000 -0.000000 0.000000 -0.000000 -0.000000 0.000000 -0.000000 -0.000000 0.000000 -0.000000 2.000625 3.124805 0.249335 17.042488 68.241991 -40.047090 -0.042390 -91.981311 -0.042165 -33.029524 2.401607 -20.761572 -3.040519 7.342208 3.914290 6.942783 17.349044 2.194506 0.000002 -0.000000 -0.000000 1.673610 4.472445 -20.026280 0.329267 1.938135 -19.282164 0.000002 0.000001 -0.000003 0.752159 5.144230 -24.150649 0.335577 1.956056 -19.467632 0.000002 -0.000002 -0.000001 0.409057 4.419702 -25.958899 0.600906 2.586404 -26.155067 0.000001 0.000001 0.000000 -4.404074 4.873608 -25.425121 0.549344 2.478776 -24.988418 -0.000001 -0.000003 0.000002 0.000000 0.000000 -0.000001 4.216818 16.712095 -14.416702 -30.722191 4.660732 42.443523 0.012959 92.354143 -0.012793 5.968078 -33.568399 -24.994005 -6.498280 -4.019866 -3.687264 5.629904 -3.868400 -0.784427 0.000001 -0.000001 0.000000 4.716449 0.285026 12.235855 0.591816 -2.273941 29.173169 -0.000002 -0.000000 0.000002 1.017535 -7.259221 12.033988 0.650915 -2.376641 30.629577 0.000003 -0.000003 0.000001 2.134879 -9.287362 18.259993 0.420756 -1.936200 24.518567 0.000005 -0.000002 -0.000003 0.557477 -12.740979 22.823057 0.387291 -1.861053 23.507968 0.000001 0.000000 0.000001 0.000001 0.000001 -0.000001 -0.000002 0.000001 -0.000000 -0.000002 0.000001 -0.000000 -0.000002 0.000001 -0.000000 -0.000002 0.000001 -0.000000 -0.000002 0.000001 -0.000000 -0.000002 0.000001 -0.000000 -0.000002 0.000001 -0.000000 -0.000002 0.000001 -0.000000 -0.000002 0.000001 -0.000000 -0.000002 0.000001 -0.000000 -0.000000 -0.000001 -0.000000 -0.000000 -0.000001 -0.000000 -0.000000 -0.000001 -0.000000 
